<svg width="11" height="10" viewBox="0 0 11 10" fill="none" xmlns="http://www.w3.org/2000/svg">
<path d="M8.71233 1.2125C8.88841 1.04486 9.12274 0.952182 9.36585 0.954022C9.60897 0.955861 9.84186 1.05207 10.0154 1.22236C10.1889 1.39264 10.2895 1.62368 10.2959 1.86672C10.3024 2.10975 10.2141 2.34578 10.0498 2.525L5.06233 8.7625C4.97657 8.85487 4.87306 8.929 4.758 8.98046C4.64293 9.03191 4.51867 9.05964 4.39264 9.06197C4.26662 9.0643 4.14142 9.0412 4.02453 8.99404C3.90763 8.94688 3.80145 8.87663 3.71233 8.7875L0.404831 5.48C0.312722 5.39417 0.238845 5.29067 0.187605 5.17567C0.136365 5.06067 0.108812 4.93653 0.106591 4.81065C0.10437 4.68477 0.127526 4.55974 0.174678 4.443C0.221829 4.32627 0.29201 4.22022 0.381033 4.1312C0.470056 4.04218 0.576099 3.972 0.692834 3.92485C0.809569 3.87769 0.934606 3.85454 1.06048 3.85676C1.18636 3.85898 1.3105 3.88653 1.4255 3.93777C1.5405 3.98901 1.644 4.06289 1.72983 4.155L4.34733 6.77125L8.68858 1.24C8.6964 1.23037 8.70474 1.22119 8.71358 1.2125H8.71233Z" fill="#21B14D"/>
</svg>
