<svg width="80" height="16" viewBox="0 0 80 16" fill="none" xmlns="http://www.w3.org/2000/svg">
<path d="M9.02935 3.5362L9.03064 3.53534C9.34915 3.22759 9.56735 2.82531 9.63251 2.37598C9.64666 2.28275 9.65351 2.18736 9.65351 2.09025C9.65351 1.02499 8.80344 0.148787 7.71458 0.0464914C7.64428 0.0395854 7.57269 0.0361328 7.50024 0.0361328H0V12.8594H1.01384V10.4099L5.77393 6.32753L5.77736 6.33358L9.25227 12.8594H10.312L6.50441 5.70987L6.50141 5.70383L8.84673 3.69245L9.02935 3.5362ZM5.35982 5.54974L1.01426 9.27641V0.983554C1.01426 0.983554 6.28578 0.983986 7.44022 0.983986C7.73173 0.983986 8.0198 1.06729 8.25644 1.23865C8.55994 1.45834 8.75199 1.78552 8.75199 2.15024C8.75199 2.45886 8.61396 2.74071 8.38804 2.9535L8.38547 2.95566C8.35889 2.98069 8.3306 3.00443 8.30145 3.02774L7.05141 4.09947L6.0873 4.92647L5.35982 5.54974Z" fill="url(#paint0_linear_2266_3403)"/>
<path d="M43.9867 2.54703L42.3727 8.45213L41.3036 12.3631L40.3095 15.9996L39.2605 15.9896L40.1466 12.8759C40.1466 12.8759 39.8984 12.8759 39.7702 12.8759C38.8978 12.8759 38.0752 12.443 37.5196 11.7752C37.4051 11.6371 37.3018 11.4891 37.214 11.3324C36.9846 10.9232 36.8624 10.4648 36.7566 10.0099C36.6991 9.76428 35.7912 6.44895 35.6265 5.84078C35.4765 5.28701 35.3265 4.73323 35.1769 4.17988C35.1216 3.97572 35.0663 3.77199 35.0114 3.5674H30.04V6.94489C30.04 8.34768 29.7879 9.99002 30.8793 11.0687C31.6449 11.8249 32.5765 11.8736 33.583 11.8736H35.4782V12.8944H32.8345C31.8361 12.8944 30.8484 12.4835 30.1424 11.7731C29.4351 11.0613 29.0261 10.066 29.0261 9.05986V3.56783H27.9347V2.54703H29.0261V0H30.04V2.54703H35.7852L37.3104 8.17891C37.3931 8.48364 37.475 8.78794 37.5578 9.09266C37.7815 9.91966 37.8677 10.8623 38.5853 11.4286C38.933 11.7031 39.3741 11.8555 39.8165 11.8555L40.4222 11.8793L41.3126 8.48277L41.5822 7.49651L42.9343 2.54962L43.9867 2.54703Z" fill="url(#paint1_linear_2266_3403)"/>
<path d="M27.5283 2.54688H26.5145V12.8477H27.5283V2.54688Z" fill="url(#paint2_linear_2266_3403)"/>
<path d="M26.172 2.54688V3.56767H23.5767C22.1175 3.56767 20.9347 4.75853 20.9347 6.22779V12.8762H19.9209V6.10349C19.9209 4.13958 21.5023 2.54731 23.4528 2.54731H26.172V2.54688Z" fill="url(#paint3_linear_2266_3403)"/>
<path d="M18.772 3.46322C18.7545 3.43473 18.7369 3.40711 18.7185 3.37992C18.3596 2.84988 17.7505 2.54688 17.1135 2.54688H10.6386V3.56767H17.2678C17.5752 3.56767 18.0369 3.80205 18.0369 4.47582C18.0369 5.00888 17.5734 5.31576 17.4864 5.38957C17.2614 5.5333 17.0367 5.67747 16.8117 5.8212C16.2823 6.1596 15.7533 6.49799 15.2238 6.83639C14.6074 7.23046 13.9909 7.62497 13.3745 8.01905C12.8879 8.33025 12.4014 8.64102 11.9153 8.95223C11.3262 9.32904 10.7051 9.71189 10.4697 10.4172C10.3107 10.895 10.3759 11.4397 10.6288 11.8748C10.8817 12.3099 11.3138 12.631 11.7969 12.7635C12.4018 12.9292 13.0753 12.8446 13.6951 12.8472C14.1328 12.849 14.5709 12.8472 15.0086 12.8472C15.9196 12.8472 16.8301 12.8472 17.7411 12.8472C17.8088 12.8472 18.9877 12.8472 18.9877 12.8472V4.25224C18.9872 3.97556 18.9157 3.70062 18.772 3.46322ZM17.9734 11.8273C17.9734 11.8273 12.4417 11.8273 12.4292 11.8273C12.1575 11.8273 11.8702 11.7375 11.6645 11.5549C11.4686 11.3814 11.3468 11.1186 11.3653 10.8566C11.3944 10.4375 11.7515 10.2665 12.061 10.068C12.3379 9.89015 12.6149 9.71275 12.8914 9.53535C13.6364 9.05754 14.3819 8.5806 15.1274 8.10365C15.7357 7.71475 16.3436 7.32542 16.9527 6.93782C17.564 6.54892 17.9738 6.09313 17.9738 6.09313V11.8273H17.9734Z" fill="url(#paint4_linear_2266_3403)"/>
<path d="M68.2614 3.46279C68.2438 3.43473 68.2262 3.40668 68.2078 3.37992C67.849 2.84945 67.2398 2.54688 66.6028 2.54688H57.6802C55.7297 2.54688 54.1483 4.13915 54.1483 6.10348V12.8766H55.1621V6.22822C55.1621 4.75896 56.3453 3.56767 57.8045 3.56767H66.7567C67.0645 3.56767 67.5257 3.80205 67.5257 4.47582C67.5257 5.00931 67.0623 5.31576 66.9753 5.38957C66.7502 5.5333 66.5256 5.67747 66.3006 5.8212C65.7711 6.1596 65.2421 6.49799 64.7127 6.83639C64.0963 7.23089 63.4798 7.62497 62.8634 8.01905C62.3768 8.33025 61.8903 8.64145 61.4041 8.95266C60.8151 9.32904 60.1935 9.71189 59.9586 10.4176C59.7996 10.8954 59.8647 11.4401 60.1177 11.8752C60.3702 12.3103 60.8027 12.6314 61.2858 12.7639C61.8907 12.9297 62.5642 12.8451 63.184 12.8477C63.6217 12.8498 64.0594 12.8477 64.4975 12.8477H67.2295C67.2972 12.8477 68.4766 12.8477 68.4766 12.8477V4.2531C68.4766 3.97513 68.405 3.70018 68.2614 3.46279ZM67.4627 11.8269C67.4627 11.8269 61.931 11.8269 61.9181 11.8269C61.6463 11.8269 61.3596 11.7371 61.1534 11.5545C60.9579 11.381 60.8357 11.1181 60.8541 10.8561C60.8833 10.437 61.2404 10.2661 61.5495 10.0675C61.8264 9.88972 62.1033 9.71232 62.3803 9.53492C63.1253 9.05711 63.8704 8.57973 64.6163 8.10278C65.2241 7.71389 65.8324 7.32456 66.4416 6.93739C67.0525 6.54849 67.4627 6.09269 67.4627 6.09269V11.8269V11.8269Z" fill="url(#paint5_linear_2266_3403)"/>
<path d="M27.0212 1.91479C27.3013 1.91479 27.5283 1.68618 27.5283 1.40417C27.5283 1.12216 27.3013 0.893555 27.0212 0.893555C26.7411 0.893555 26.514 1.12216 26.514 1.40417C26.514 1.68618 26.7411 1.91479 27.0212 1.91479Z" fill="url(#paint6_linear_2266_3403)"/>
<path d="M80 5.23721V12.8762H78.9862V5.52424C78.9862 4.44388 78.1164 3.56767 77.0429 3.56767H75.2279V12.8762H74.2141V3.56767H72.2923C71.2193 3.56767 70.349 4.44345 70.349 5.52424V12.8762H69.3352V5.23721C69.3352 3.75155 70.5312 2.54688 72.0072 2.54688H77.328C78.8035 2.54688 80 3.75155 80 5.23721Z" fill="url(#paint7_linear_2266_3403)"/>
<path d="M44.2817 5.1224V9.28026C44.2817 10.7025 45.4267 11.8558 46.8396 11.8558H52.5132V12.9392C52.5132 14.0657 51.6061 14.979 50.4873 14.979H45.2959V15.9998H50.5246C52.1827 15.9998 53.5271 14.6463 53.5271 12.9767V5.1224C53.5271 3.70018 52.3821 2.54688 50.9691 2.54688H46.8396C45.4267 2.54688 44.2817 3.70018 44.2817 5.1224ZM45.2955 9.04287V5.35936C45.2955 4.36964 46.0924 3.56767 47.075 3.56767H50.7333C51.7163 3.56767 52.5128 4.37007 52.5128 5.35936V10.8346H47.075C46.0924 10.835 45.2955 10.0326 45.2955 9.04287Z" fill="url(#paint8_linear_2266_3403)"/>
<defs>
<linearGradient id="paint0_linear_2266_3403" x1="5.15599" y1="0.0361328" x2="5.15599" y2="12.8594" gradientUnits="userSpaceOnUse">
<stop stop-color="#B71743"/>
<stop offset="1" stop-color="#509FC0"/>
</linearGradient>
<linearGradient id="paint1_linear_2266_3403" x1="35.9607" y1="0" x2="35.9607" y2="15.9996" gradientUnits="userSpaceOnUse">
<stop stop-color="#B71743"/>
<stop offset="1" stop-color="#509FC0"/>
</linearGradient>
<linearGradient id="paint2_linear_2266_3403" x1="27.0214" y1="2.54688" x2="27.0214" y2="12.8477" gradientUnits="userSpaceOnUse">
<stop stop-color="#B71743"/>
<stop offset="1" stop-color="#509FC0"/>
</linearGradient>
<linearGradient id="paint3_linear_2266_3403" x1="23.0464" y1="2.54688" x2="23.0464" y2="12.8762" gradientUnits="userSpaceOnUse">
<stop stop-color="#B71743"/>
<stop offset="1" stop-color="#509FC0"/>
</linearGradient>
<linearGradient id="paint4_linear_2266_3403" x1="14.6855" y1="2.54688" x2="14.6855" y2="12.8665" gradientUnits="userSpaceOnUse">
<stop stop-color="#B71743"/>
<stop offset="1" stop-color="#509FC0"/>
</linearGradient>
<linearGradient id="paint5_linear_2266_3403" x1="61.3124" y1="2.54688" x2="61.3124" y2="12.8766" gradientUnits="userSpaceOnUse">
<stop stop-color="#B71743"/>
<stop offset="1" stop-color="#509FC0"/>
</linearGradient>
<linearGradient id="paint6_linear_2266_3403" x1="27.0212" y1="0.893555" x2="27.0212" y2="1.91479" gradientUnits="userSpaceOnUse">
<stop stop-color="#B71743"/>
<stop offset="1" stop-color="#509FC0"/>
</linearGradient>
<linearGradient id="paint7_linear_2266_3403" x1="74.6676" y1="2.54688" x2="74.6676" y2="12.8762" gradientUnits="userSpaceOnUse">
<stop stop-color="#B71743"/>
<stop offset="1" stop-color="#509FC0"/>
</linearGradient>
<linearGradient id="paint8_linear_2266_3403" x1="48.9044" y1="2.54687" x2="48.9044" y2="15.9998" gradientUnits="userSpaceOnUse">
<stop stop-color="#B71743"/>
<stop offset="1" stop-color="#509FC0"/>
</linearGradient>
</defs>
</svg>
